PathFileType	4	(X/Y/Z)	T1_P1_Vision_NoMovement_2_0-682.trc
DataRate	CameraRate	NumFrames	NumMarkers	Units	OrigDataRate	OrigDataStartFrame	OrigNumFrames
60	60	4	27	m	60	0	682
Frame#	Time	RHip			RKnee			RAnkle			RBigToe			RSmallToe			RHeel			LHip			LKnee			LAnkle			LBigToe			LSmallToe			LHeel			Neck			Head			Nose			RShoulder			RElbow			RWrist			RThumb			RIndex			RPinky			LShoulder			LElbow			LWrist			LThumb			LIndex			LPinky		
		X1	Y1	Z1	X2	Y2	Z2	X3	Y3	Z3	X4	Y4	Z4	X5	Y5	Z5	X6	Y6	Z6	X7	Y7	Z7	X8	Y8	Z8	X9	Y9	Z9	X10	Y10	Z10	X11	Y11	Z11	X12	Y12	Z12	X13	Y13	Z13	X14	Y14	Z14	X15	Y15	Z15	X16	Y16	Z16	X17	Y17	Z17	X18	Y18	Z18	X19	Y19	Z19	X20	Y20	Z20	X21	Y21	Z21	X22	Y22	Z22	X23	Y23	Z23	X24	Y24	Z24	X25	Y25	Z25	X26	Y26	Z26	X27	Y27	Z27
1	0.0166666666666666	-63.55143513807262	3799.9254573647763	-574.8900007418454	295.2864792352524	3951.432548517105	-527.2712899402452	633.2843819370371	4154.998685011691	-526.8653881868804	692.5576671602264	4020.7171847922236	-440.1045107124113	692.654158004889	3993.4697202254883	-495.8153284796949	681.1600096727486	4230.429513410484	-539.8901920941041	-100.86797373587872	3947.1943850147754	-393.58169123168784	231.20507740894956	4001.798115056651	-377.5979370994153	621.5454592599707	4278.831737060936	-479.7342569998525	666.0577854270151	3968.3739036594375	-344.9590836278878	675.0479026351613	4122.944293340676	-342.62482247528027	668.5377183032181	4325.825178521775	-501.67301420263817	-654.7043834685389	3709.3495945017435	-541.8691208128524	-890.5780584513433	3495.6223614366513	-432.33622867390005	-742.9230790089504	3558.435024080699	-418.60971894783586	-551.3545015579846	3688.9076086423884	-686.0745258383002	-281.37319560032773	3667.2994849811844	-688.0782054466038	-19.590227475774903	3660.7434435405576	-628.7823254447989	91.60766306871467	3742.0195621765756	-561.8769293930869	118.14856654542962	3719.493267948881	-561.8464534316868	106.5195473927986	3680.2174025753484	-592.2134411622687	-611.180506820447	3815.6509845739965	-406.1707068928025	-383.0446590150155	3954.944396844677	-348.4625927663843	-124.81338969087686	3934.4593714114944	-258.1946886393807	17.338532545669874	3880.250512943921	-283.52603732397176	26.895004116114166	3851.7938176414204	-205.42241586783	3.9934213855235017	3980.976473991133	-218.11639575327578
2	0.0333333333333333	-63.98877041802556	3788.910709899946	-566.5068159881479	288.29433418639337	3942.691391834843	-530.2037356390445	631.513884032092	4153.579328249861	-527.6067322496822	695.0233124443157	4033.901132151974	-453.5293392459846	688.9923872295988	3981.949289976213	-497.1452507945841	675.8814505635572	4215.134031518841	-535.7873585948855	-100.79533575605787	3947.1858456205973	-393.55282676621835	231.5679360416123	3997.9388687369737	-381.47975759216945	624.4860735462579	4278.2264887226265	-479.2495744848676	666.4457858054902	3977.4853870753986	-349.8208718275524	672.9440479803094	4125.538143700307	-343.6564570667655	670.2942058552758	4324.534647388341	-500.94284070244714	-652.8151650984257	3709.761259913703	-541.6053048578792	-887.6649454526419	3497.4974022809133	-432.0862505721641	-742.7510513731581	3558.170677087092	-418.48053742198505	-557.4115005559341	3687.315387903183	-686.2862249441816	-279.0142499068288	3668.440630738097	-688.49662067764	-19.584129728515897	3660.764755747605	-628.707187790665	89.09993337544446	3758.4027658074037	-566.1695210689953	119.92779995868108	3721.3713553854054	-562.0820413038198	106.2782315832621	3664.863658104711	-588.3168228710127	-611.2086127189287	3815.8956949080975	-406.244311077688	-381.42727658456073	3956.475330571918	-349.0088272826457	-125.6994980138548	3953.2828265257626	-269.60699926612693	13.641192975991052	3886.326252026825	-285.3489437861574	23.941089381030956	3863.078492259881	-213.21173007523595	3.2909567462502833	3989.1193088995715	-223.77630170772153
3	0.05	-64.18606209241443	3783.73690226279	-562.5985531722057	284.7471996495158	3937.4836413988687	-532.6590341579204	631.0500097237855	4152.543829987713	-527.3582896485548	696.3290024029628	4041.886869512652	-461.5327677055556	685.8213373277057	3971.3523289465693	-497.57234622981645	671.2519560820583	4199.207536251133	-531.8892974360988	-100.76125657699495	3946.720810028207	-393.2284377148725	231.92875549815847	3995.7624869615033	-384.0039280112153	626.5017670009047	4278.084553459221	-479.0687226069414	667.7413606569542	3986.6778073581836	-353.84058318964827	672.1050595563366	4132.228879162471	-345.37420819615306	671.0059811593744	4323.714182773552	-500.5481365641194	-651.4065721348875	3710.040841359293	-541.4182027644841	-886.0751671766467	3498.5503383760724	-431.54130018769285	-742.62486741273	3557.9478956770445	-418.37160550676816	-560.5761945977681	3686.703866736711	-686.5599194601989	-276.0789523166627	3669.5667259260863	-688.8769225964965	-19.57282191878602	3660.778128033505	-628.6622357995233	87.54912455296818	3768.241398195617	-568.715889261406	121.0693177555874	3722.211436020066	-562.1652229950557	106.12088486503856	3655.662097365779	-585.980171235779	-611.2201035988695	3816.0280386658105	-406.2989810834256	-379.69360115893255	3957.717749457065	-349.4182665481877	-125.44119961920448	3961.584257614223	-276.3614220934147	12.0245754083132	3890.5122794901617	-286.7852128887087	22.249642890604793	3869.9443552071943	-217.89632917630692	2.821544013561131	3990.9785455255774	-225.35355923232424
4	0.0666666666666666	-64.14438505280545	3784.5467016280454	-563.2695485896875	285.0773016270845	3936.102068535557	-534.042901013133	631.3316217824254	4150.9104059775855	-525.6572104292328	696.8316460145475	4044.8683853537623	-464.02863717847714	683.5783595191472	3964.641577682875	-497.9744544084364	668.1302926521096	4185.1146685976655	-528.7310444324405	-100.79256244918764	3945.0079846212593	-392.04431265292936	232.50695776538782	3995.4759843588854	-384.99342813000624	627.7277097347506	4278.434569205678	-479.2627960288757	669.6891947805326	3993.348998532185	-356.6258710194967	673.1763624277193	4141.463883557903	-347.4489001680686	671.0466258892762	4323.30019008008	-500.4158540428649	-650.324630408681	3710.236742057138	-541.3040799594021	-886.1986649608991	3498.426185852948	-431.12127572812057	-742.5556294234432	3557.780521548987	-418.2965862456272	-560.3843801598109	3687.2072487903833	-686.8133398246039	-273.2387712284204	3670.3875806071974	-689.0658820462787	-19.56722195612767	3660.7937430430347	-628.6543994590686	87.04776148699557	3771.026127811563	-569.3956305330381	120.9981485379117	3721.970010190731	-562.0243947235236	106.0672206030298	3653.0941041453943	-585.3292588923556	-611.1451795609349	3815.4993218673403	-405.9409661091288	-377.9161735850007	3958.465859413468	-349.5641981711132	-124.44162168275832	3960.7164234701895	-278.6487479643269	12.31397907360282	3892.57148691871	-288.16005037603566	21.848955616275504	3871.932283964644	-219.14989415959377	2.356515221501698	3986.7351308325683	-222.99227414553638
